<svg width="14" height="14" viewBox="0 0 14 14" fill="none" xmlns="http://www.w3.org/2000/svg">
<circle cx="7" cy="7" r="7" fill="white"/>
<g clip-path="url(#clip0_40_3)">
<path d="M7.81184 9.3533C7.6551 9.51003 7.40286 9.51003 7.24612 9.3533C7.16776 9.27493 7.12857 9.1733 7.12857 9.07044C7.12857 8.96758 7.16776 8.86595 7.24612 8.78758L8.63469 7.40024L4.40041 7.40024C4.18 7.40024 4 7.22146 4 6.99983C4 6.7782 4.17878 6.59942 4.40041 6.59942L8.63469 6.59942L7.24612 5.21207C7.08939 5.05534 7.08939 4.80309 7.24612 4.64636C7.40286 4.48962 7.6551 4.48962 7.81184 4.64636L9.88245 6.71697C9.95837 6.79167 10 6.8933 10 6.99983C10 7.10636 9.95837 7.20799 9.88245 7.28269L7.81184 9.3533Z" fill="#2F3437"/>
</g>
<defs>
<clipPath id="clip0_40_3">
<rect width="6" height="6" fill="white" transform="translate(10 4) rotate(90)"/>
</clipPath>
</defs>
</svg>
