<svg width="44" height="44" viewBox="0 0 44 44" fill="none" xmlns="http://www.w3.org/2000/svg">
<circle cx="22" cy="22" r="22" fill="white"/>
<path d="M31.1834 14.8775C31.1834 16.4667 29.8952 17.755 28.3059 17.755C26.7167 17.755 25.4285 16.4667 25.4285 14.8775C25.4285 13.2883 26.7167 12 28.3059 12C29.8952 12 31.1834 13.2883 31.1834 14.8775Z" fill="#F89522"/>
<path d="M25.0792 12.0106C24.4797 12.0001 23.8026 12.0001 23.0304 12.0001H20.1529C17.0131 12.0001 15.4432 12.0001 14.29 12.7068C13.6447 13.1023 13.1022 13.6448 12.7067 14.2901C12 15.4434 12 17.0133 12 20.153V21.1122C12 23.3467 12 24.4641 12.3651 25.3453C12.8518 26.5205 13.7854 27.454 14.9605 27.9408C15.5939 28.2031 16.349 28.2769 17.5531 28.2977C18.3688 28.3117 18.7766 28.3187 19.1005 28.5071C19.4244 28.6956 19.626 29.0362 20.0293 29.7176L20.5493 30.5961C21.0128 31.379 22.1705 31.379 22.6339 30.5961L23.1539 29.7176C23.5571 29.0362 23.7588 28.6955 24.0827 28.5071C24.4067 28.3187 24.8144 28.3117 25.6301 28.2977C26.8342 28.2769 27.5893 28.2031 28.2227 27.9408C29.3978 27.454 30.3314 26.5205 30.8182 25.3453C31.1832 24.4641 31.1832 23.3467 31.1832 21.1122V20.153C31.1832 19.3808 31.1832 18.7036 31.1727 18.1042C30.4103 18.7821 29.4062 19.1938 28.3057 19.1938C25.9219 19.1938 23.9895 17.2614 23.9895 14.8776C23.9895 13.7772 24.4013 12.773 25.0792 12.0106Z" fill="#F89522"/>
</svg>
